<svg width="141" height="40" viewBox="0 0 141 40" fill="none" xmlns="http://www.w3.org/2000/svg">
<path d="M0 6.4C0 2.86539 2.83555 0 6.33336 0H134.584C138.082 0 140.917 2.86539 140.917 6.4V33.6C140.917 37.1346 138.082 40 134.584 40H6.33336C2.83555 40 0 37.1346 0 33.6V6.4Z" fill="#E36F59"/>
<path d="M28.3356 13.1543L28.3181 13.1443L28.2773 13.1322C28.2938 13.1456 28.3142 13.1534 28.3356 13.1543Z" fill="#0D0C22"/>
<path d="M28.5905 14.9839L28.5703 14.9892L28.5905 14.9839Z" fill="#0D0C22"/>
<path d="M28.3437 13.1522C28.341 13.1519 28.3386 13.1512 28.3362 13.1504C28.3359 13.1521 28.3359 13.1537 28.3362 13.1554C28.3389 13.155 28.3413 13.1539 28.3437 13.1522Z" fill="#0D0C22"/>
<path d="M28.3359 13.1568H28.341V13.1537L28.3359 13.1568Z" fill="#0D0C22"/>
<path d="M28.5742 14.9795L28.6038 14.9632L28.6147 14.9571L28.6247 14.9468C28.6061 14.9547 28.5889 14.9657 28.5742 14.9795Z" fill="#0D0C22"/>
<path d="M28.3846 13.1939L28.3555 13.1672L28.3359 13.1569C28.3467 13.1749 28.3639 13.1882 28.3846 13.1939Z" fill="#0D0C22"/>
<path d="M21.1849 30.942C21.1614 30.9519 21.1408 30.9676 21.125 30.9874L21.1436 30.9757C21.1562 30.9644 21.1741 30.9508 21.1849 30.942Z" fill="#0D0C22"/>
<path d="M25.3661 30.1106C25.3661 30.0844 25.3527 30.0891 25.356 30.1822C25.356 30.1746 25.3592 30.167 25.3607 30.1597C25.3625 30.1433 25.3639 30.127 25.3661 30.1106Z" fill="#0D0C22"/>
<path d="M24.9349 30.942C24.9114 30.9519 24.8908 30.9676 24.875 30.9874L24.8936 30.9757C24.9062 30.9644 24.9241 30.9508 24.9349 30.942Z" fill="#0D0C22"/>
<path d="M18.2378 31.139C18.2202 31.1243 18.1987 31.1144 18.1758 31.1108C18.1944 31.1197 18.2129 31.1283 18.2254 31.1349L18.2378 31.139Z" fill="#0D0C22"/>
<path d="M17.5757 30.4986C17.5729 30.4714 17.5644 30.4452 17.5508 30.4214C17.5604 30.446 17.5685 30.4714 17.575 30.4973L17.5757 30.4986Z" fill="#0D0C22"/>
<path d="M22.0272 19.0258C21.1172 19.4195 20.0846 19.8658 18.7462 19.8658C18.1863 19.8647 17.6292 19.787 17.0898 19.635L18.0155 29.2387C18.0483 29.64 18.2292 30.0144 18.5224 30.2871C18.8156 30.56 19.1996 30.7114 19.5982 30.7111C19.5982 30.7111 20.9107 30.7801 21.3486 30.7801C21.82 30.7801 23.2333 30.7111 23.2333 30.7111C23.6318 30.7111 24.0158 30.5597 24.3089 30.2871C24.602 30.0141 24.783 29.64 24.8157 29.2387L25.8071 18.6263C25.3641 18.4734 24.9169 18.3718 24.4129 18.3718C23.5411 18.3715 22.8387 18.6749 22.0272 19.0258Z" fill="#FFDD00"/>
<path d="M14.2266 14.9286L14.2424 14.943L14.2527 14.949C14.2448 14.9413 14.236 14.9345 14.2266 14.9286Z" fill="#0D0C22"/>
<path d="M30.0896 14.0423L29.9504 13.3318C29.8252 12.6943 29.5414 12.092 28.8938 11.8616C28.6863 11.7879 28.4507 11.7562 28.2915 11.6037C28.1324 11.4511 28.0854 11.2141 28.0486 10.9944C27.9806 10.5911 27.9164 10.1875 27.8466 9.78489C27.7863 9.43877 27.7384 9.04993 27.5814 8.73242C27.377 8.30604 26.9527 8.0567 26.5307 7.89174C26.3144 7.81017 26.0938 7.74117 25.8698 7.68509C24.8157 7.40405 23.7074 7.30073 22.6229 7.24185C21.3212 7.16928 20.0161 7.19113 18.7175 7.30729C17.751 7.39613 16.733 7.5036 15.8145 7.84143C15.4788 7.96509 15.1329 8.11351 14.8776 8.3756C14.5644 8.69762 14.4622 9.19563 14.6908 9.59717C14.8534 9.88235 15.1288 10.0838 15.4209 10.2171C15.8013 10.3888 16.1986 10.5195 16.6062 10.607C17.7411 10.8604 18.9166 10.96 20.076 11.0023C21.3611 11.0547 22.6482 11.0123 23.9272 10.8752C24.2434 10.8401 24.5592 10.798 24.8743 10.7489C25.2454 10.6913 25.4837 10.2009 25.3743 9.85927C25.2434 9.45082 24.8917 9.29239 24.4939 9.35404C24.4353 9.36334 24.377 9.37194 24.3184 9.38057L24.2762 9.38677C24.1414 9.40397 24.0067 9.42005 23.872 9.43498C23.5936 9.46528 23.3146 9.49009 23.0349 9.50936C22.4085 9.55343 21.7804 9.57377 21.1526 9.57479C20.5358 9.57479 19.9186 9.55723 19.303 9.51626C19.0222 9.49764 18.7421 9.47401 18.4626 9.4453C18.3355 9.43187 18.2087 9.41775 18.0819 9.40191L17.9613 9.3864L17.935 9.38264L17.8099 9.36436C17.5543 9.32546 17.2987 9.28068 17.0459 9.22661C17.0203 9.22089 16.9975 9.20656 16.9811 9.18596C16.9648 9.16536 16.9559 9.13971 16.9559 9.1133C16.9559 9.0869 16.9648 9.06128 16.9811 9.04068C16.9975 9.02008 17.0203 9.00572 17.0459 9H17.0506C17.2698 8.95281 17.4906 8.91252 17.7121 8.87738C17.786 8.8657 17.8601 8.85419 17.9343 8.84295H17.9364C18.0751 8.83364 18.2145 8.80852 18.3525 8.79197C19.5534 8.66575 20.7615 8.62272 21.9682 8.66319C22.554 8.68039 23.1396 8.71519 23.7227 8.77511C23.8481 8.78821 23.9729 8.80198 24.0976 8.81746C24.1453 8.82332 24.1934 8.83022 24.2414 8.83608L24.3382 8.85019C24.6204 8.89265 24.9011 8.94421 25.1803 9.00483C25.5941 9.09574 26.1253 9.12536 26.3095 9.58342C26.368 9.72876 26.3946 9.89027 26.427 10.0428L26.4684 10.2374C26.4694 10.2409 26.4702 10.2445 26.4707 10.2481C26.5682 10.7073 26.6658 11.1665 26.7633 11.6257C26.7706 11.6596 26.7708 11.6947 26.7638 11.7287C26.7571 11.7626 26.7434 11.7948 26.7237 11.8232C26.7041 11.8517 26.6787 11.8757 26.6495 11.8937C26.6202 11.9118 26.5874 11.9236 26.5535 11.9284H26.5506L26.4911 11.9367L26.4322 11.9446C26.2454 11.9692 26.0583 11.9921 25.8712 12.0135C25.5024 12.0559 25.1331 12.0927 24.7632 12.1237C24.0282 12.1855 23.2917 12.226 22.5537 12.2453C22.1777 12.2554 21.8018 12.2601 21.426 12.2594C19.9301 12.2582 18.4356 12.1703 16.9497 11.9963C16.7889 11.977 16.628 11.9563 16.4672 11.9353C16.5919 11.9515 16.3765 11.9229 16.3329 11.9167C16.2306 11.9022 16.1284 11.8872 16.0262 11.8716C15.6829 11.8196 15.3418 11.7555 14.9993 11.6994C14.5852 11.6305 14.1892 11.665 13.8146 11.8716C13.5072 12.0416 13.2583 12.3023 13.1013 12.6189C12.9398 12.9564 12.8917 13.3239 12.8194 13.6866C12.7472 14.0492 12.6347 14.4394 12.6773 14.8117C12.769 15.6152 13.3249 16.2682 14.1244 16.4142C14.8766 16.5519 15.6329 16.6636 16.3911 16.7586C19.3699 17.1273 22.3793 17.1714 25.3674 16.8902C25.6108 16.8672 25.8538 16.8422 26.0963 16.8151C26.1721 16.8067 26.249 16.8155 26.3209 16.8409C26.3928 16.8663 26.4583 16.9077 26.5124 16.962C26.5664 17.0163 26.6081 17.0821 26.6337 17.1546C26.6593 17.2272 26.6686 17.3046 26.6609 17.3813L26.5851 18.1245C26.4327 19.6263 26.2803 21.128 26.1279 22.6295C25.9688 24.2064 25.8087 25.7832 25.6476 27.3597C25.6021 27.8039 25.5567 28.2478 25.5113 28.6918C25.4676 29.1286 25.4615 29.5796 25.3794 30.0115C25.2499 30.6905 24.7949 31.1077 24.131 31.2601C23.5227 31.4 22.9014 31.4735 22.2776 31.4792C21.5862 31.4829 20.895 31.452 20.2035 31.4557C19.4653 31.4599 18.5611 31.3911 17.9913 30.8358C17.4906 30.3482 17.4214 29.5846 17.3533 28.9244C17.2624 28.0505 17.1723 27.1765 17.083 26.3025L16.582 21.4434L16.2579 18.2994C16.2524 18.2474 16.247 18.1961 16.2419 18.1438C16.203 17.7687 15.9403 17.4016 15.5262 17.4205C15.1717 17.4364 14.7689 17.7408 14.8105 18.1438L15.0507 20.4746L15.5476 25.2962C15.6892 26.6659 15.8304 28.0356 15.9713 29.4055C15.9985 29.668 16.0241 29.9312 16.0527 30.1935C16.2085 31.6277 17.2923 32.4005 18.6344 32.618C19.4182 32.7456 20.2212 32.7718 21.0166 32.7848C22.0363 32.8013 23.0663 32.841 24.0693 32.6544C25.5556 32.3788 26.6707 31.3759 26.8298 29.8201C26.8753 29.3712 26.9209 28.9218 26.9661 28.4727C27.1172 26.9867 27.2681 25.5006 27.4189 24.0144L27.9115 19.1584L28.1376 16.9329C28.1487 16.8225 28.195 16.7187 28.269 16.6369C28.3433 16.5551 28.4416 16.4996 28.5492 16.4786C28.9743 16.3949 29.3805 16.252 29.6829 15.9251C30.1641 15.4048 30.2599 14.7263 30.0896 14.0423ZM14.1026 14.5224C14.1091 14.5193 14.0971 14.5754 14.092 14.6016C14.091 14.562 14.0931 14.5269 14.1026 14.5224ZM14.1438 14.8448C14.1473 14.8424 14.1575 14.8562 14.168 14.8727C14.152 14.8575 14.1418 14.8462 14.1435 14.8448H14.1438ZM14.1844 14.8988C14.199 14.924 14.2069 14.9398 14.1844 14.8988V14.8988ZM14.2658 14.9657H14.2679C14.2679 14.9681 14.2716 14.9705 14.273 14.9729C14.2707 14.9702 14.2682 14.9678 14.2655 14.9657H14.2658ZM28.5296 14.8658C28.3769 15.0125 28.1467 15.0807 27.9195 15.1148C25.3702 15.4971 22.7837 15.6906 20.2065 15.6052C18.3621 15.5415 16.537 15.3345 14.7109 15.0738C14.532 15.0483 14.3381 15.0153 14.2151 14.882C13.9833 14.6306 14.0971 14.1243 14.1575 13.8205C14.2127 13.5423 14.3183 13.1713 14.6459 13.1317C15.1571 13.0711 15.7508 13.2891 16.2565 13.3666C16.8654 13.4605 17.4766 13.5357 18.0901 13.5922C20.7082 13.8333 23.3703 13.7957 25.9768 13.4431C26.4518 13.3786 26.9253 13.3036 27.3969 13.2182C27.8173 13.1421 28.283 12.9992 28.5371 13.439C28.7112 13.7386 28.7342 14.1394 28.7073 14.478C28.699 14.6255 28.6354 14.7642 28.529 14.8658H28.5296Z" fill="#0D0C22"/>
<path fill-rule="evenodd" clip-rule="evenodd" d="M43.9926 22.0234C43.8438 22.3105 43.6392 22.5606 43.3787 22.7727C43.1181 22.985 42.8144 23.1579 42.4669 23.291C42.1198 23.4244 41.7702 23.5139 41.4189 23.5595C41.0673 23.6053 40.726 23.6014 40.3957 23.547C40.0648 23.493 39.7833 23.3827 39.552 23.216L39.8128 20.481C40.0524 20.3978 40.354 20.3124 40.718 20.2249C41.0818 20.1376 41.4559 20.075 41.8406 20.0376C42.2253 20.0001 42.5888 20.0045 42.9321 20.0502C43.2752 20.0959 43.546 20.2062 43.7445 20.3811C43.8521 20.481 43.9432 20.5892 44.0174 20.7058C44.0919 20.8224 44.1372 20.9431 44.154 21.068C44.1952 21.4177 44.1416 21.7362 43.9926 22.0234ZM40.2094 16.1972C40.383 16.089 40.592 15.9932 40.8357 15.9098C41.0797 15.8268 41.3299 15.7683 41.5863 15.7351C41.8424 15.7019 42.0926 15.6975 42.3368 15.7225C42.5805 15.7476 42.7958 15.8162 42.9818 15.9285C43.1678 16.041 43.3062 16.2034 43.3973 16.4156C43.4881 16.6281 43.5129 16.8966 43.4715 17.2213C43.4387 17.4794 43.337 17.698 43.1678 17.8769C42.9983 18.0561 42.7914 18.2058 42.5477 18.3266C42.3037 18.4475 42.0452 18.5432 41.7726 18.6137C41.4994 18.6847 41.2368 18.7368 40.9848 18.7699C40.7325 18.8034 40.5134 18.8243 40.3274 18.8324C40.1414 18.8407 40.0192 18.8448 39.9613 18.8448L40.2094 16.1972ZM45.3322 20.2561C45.2 19.9649 45.0223 19.7088 44.799 19.488C44.5757 19.2674 44.3108 19.1073 44.005 19.0073C44.1372 18.899 44.2676 18.7284 44.3959 18.4952C44.524 18.2623 44.6334 18.0081 44.7245 17.7334C44.8153 17.4585 44.8777 17.1818 44.9105 16.9028C44.9434 16.6239 44.931 16.3845 44.8735 16.1846C44.7325 15.6852 44.5116 15.2938 44.2097 15.0107C43.9077 14.7277 43.5564 14.532 43.1554 14.4236C42.7541 14.3157 42.312 14.2926 41.8282 14.355C41.3444 14.4174 40.8502 14.5402 40.346 14.7234C40.346 14.6819 40.3501 14.6382 40.3584 14.5924C40.3664 14.5467 40.3706 14.4987 40.3706 14.4486C40.3706 14.3238 40.3087 14.2157 40.1846 14.124C40.0606 14.0324 39.9181 13.9784 39.7569 13.9616C39.5955 13.9451 39.4384 13.9803 39.2853 14.0677C39.1324 14.1552 39.0268 14.3157 38.9691 14.5485C38.9029 15.2979 38.8367 16.0765 38.7707 16.884C38.7044 17.6917 38.6341 18.5077 38.5598 19.3321C38.4853 20.1563 38.4108 20.9744 38.3366 21.7861C38.262 22.5979 38.1875 23.3784 38.1133 24.1277C38.1381 24.3526 38.1999 24.5275 38.2993 24.6524C38.3984 24.7773 38.5143 24.8523 38.6465 24.8772C38.7787 24.9022 38.9174 24.8791 39.062 24.8084C39.2066 24.7379 39.3329 24.6148 39.4405 24.44C39.7711 24.6232 40.1434 24.7419 40.5568 24.7961C40.9703 24.8501 41.3897 24.8501 41.816 24.7961C42.2416 24.7419 42.6612 24.64 43.0747 24.4899C43.4881 24.3402 43.8645 24.1528 44.2034 23.9281C44.5426 23.7033 44.8277 23.447 45.0595 23.16C45.2908 22.8725 45.444 22.5624 45.5182 22.2296C45.5927 21.8881 45.6134 21.5468 45.5803 21.2054C45.5472 20.8641 45.4644 20.5478 45.3322 20.2561Z" fill="white"/>
<path fill-rule="evenodd" clip-rule="evenodd" d="M57.4309 26.8502C57.3857 27.125 57.3212 27.4144 57.2387 27.7184C57.1559 28.022 57.0589 28.2991 56.9474 28.549C56.8356 28.7987 56.7117 29.0003 56.5754 29.1545C56.4388 29.3085 56.2918 29.3731 56.1348 29.3482C56.0108 29.3313 55.9322 29.2523 55.8993 29.1109C55.866 28.9692 55.866 28.7943 55.8993 28.5864C55.9322 28.378 55.9961 28.1428 56.0913 27.8805C56.1865 27.6183 56.3024 27.3579 56.4388 27.1001C56.5754 26.8418 56.7303 26.5943 56.9039 26.3569C57.0775 26.1198 57.2594 25.9219 57.4496 25.7638C57.4909 25.8137 57.5096 25.9385 57.5054 26.1385C57.501 26.3383 57.4765 26.5757 57.4309 26.8502ZM61.6361 21.43C61.5243 21.3051 61.388 21.2345 61.2265 21.2177C61.0654 21.201 60.9019 21.2926 60.7368 21.4924C60.6292 21.6922 60.4926 21.8838 60.3272 22.0669C60.1619 22.2503 59.9904 22.4166 59.8127 22.5665C59.6347 22.7162 59.4652 22.8455 59.304 22.9536C59.1428 23.062 59.0166 23.141 58.9258 23.1909C58.8927 22.9246 58.8738 22.6373 58.8699 22.3292C58.8655 22.0211 58.872 21.709 58.8885 21.3926C58.9131 20.9429 58.9649 20.4893 59.0435 20.0312C59.1221 19.5733 59.2357 19.1237 59.3847 18.6822C59.3847 18.4493 59.3307 18.2598 59.2233 18.114C59.1157 17.9685 58.9855 17.8767 58.8326 17.8393C58.6795 17.8019 58.5227 17.8227 58.3613 17.9017C58.2001 17.981 58.0617 18.1247 57.9458 18.3326C57.8467 18.6075 57.7328 18.9155 57.6048 19.2568C57.4765 19.5982 57.3318 19.9458 57.1707 20.2996C57.0092 20.6538 56.8294 20.9971 56.631 21.33C56.4325 21.6632 56.2155 21.9589 55.9798 22.2168C55.7441 22.4749 55.4877 22.677 55.2109 22.8226C54.9335 22.9683 54.6342 23.0328 54.3116 23.0162C54.1626 22.9745 54.0549 22.8622 53.989 22.6789C53.9227 22.4959 53.8834 22.2667 53.8713 21.992C53.8588 21.7172 53.8713 21.4154 53.9083 21.0865C53.9455 20.7577 53.9952 20.4308 54.0573 20.1062C54.1191 19.7814 54.1874 19.4733 54.2617 19.182C54.3362 18.8906 54.4063 18.6448 54.4725 18.4451C54.5719 18.2037 54.5719 18.0016 54.4725 17.8393C54.3734 17.6769 54.2371 17.5688 54.0635 17.5145C53.8899 17.4605 53.7078 17.4627 53.5176 17.5208C53.3274 17.5791 53.1908 17.7081 53.1083 17.9079C52.9676 18.2495 52.8392 18.6323 52.7236 19.057C52.608 19.4816 52.5148 19.921 52.4447 20.3746C52.3743 20.8285 52.3347 21.2782 52.3267 21.7236C52.3262 21.7526 52.3275 21.7801 52.3275 21.809C52.1472 22.293 51.9754 22.6589 51.8121 22.9037C51.6013 23.2202 51.3633 23.3576 51.0989 23.3158C50.9827 23.2659 50.9066 23.1494 50.8694 22.9661C50.8319 22.7831 50.8197 22.5583 50.8319 22.2916C50.8445 22.0254 50.8756 21.7236 50.925 21.3863C50.9749 21.0491 51.0365 20.6994 51.111 20.3372C51.1855 19.9748 51.2642 19.6109 51.3467 19.2444C51.4295 18.8781 51.5038 18.5325 51.5702 18.2077C51.562 17.9163 51.4771 17.6937 51.3157 17.5395C51.1547 17.3857 50.9291 17.3253 50.6399 17.3584C50.4415 17.4418 50.2945 17.5502 50.1996 17.6833C50.1044 17.8163 50.0278 17.9871 49.9701 18.1952C49.9367 18.3036 49.8873 18.52 49.8211 18.8448C49.7548 19.1693 49.6702 19.5421 49.5667 19.9625C49.4635 20.3831 49.3414 20.8222 49.2009 21.2801C49.0604 21.738 48.9031 22.1525 48.7298 22.5228C48.5559 22.8932 48.3658 23.1909 48.1591 23.4158C47.9524 23.6405 47.7291 23.7322 47.4893 23.6905C47.3568 23.6655 47.2722 23.5281 47.2349 23.2784C47.1977 23.0285 47.1917 22.7207 47.2163 22.3542C47.2412 21.9879 47.2908 21.5861 47.3651 21.1491C47.4396 20.7119 47.5159 20.2977 47.5946 19.9062C47.6732 19.515 47.7457 19.1693 47.8119 18.8697C47.8779 18.5699 47.9234 18.3701 47.9482 18.2703C47.9482 18.0288 47.8942 17.8354 47.787 17.6894C47.6794 17.544 47.5493 17.4522 47.3961 17.4147C47.243 17.3773 47.0859 17.398 46.925 17.4771C46.7636 17.5563 46.6252 17.7 46.5092 17.9079C46.4679 18.1327 46.414 18.3931 46.3481 18.6886C46.2818 18.9841 46.2179 19.288 46.1558 19.6003C46.0938 19.9126 46.0358 20.2185 45.9822 20.5183C45.9284 20.8181 45.8891 21.0803 45.8643 21.3051C45.8477 21.4799 45.8291 21.6944 45.8086 21.9483C45.7877 22.2024 45.7773 22.4708 45.7773 22.7538C45.7773 23.0371 45.798 23.318 45.8397 23.5969C45.8808 23.8759 45.9553 24.132 46.0627 24.3649C46.1701 24.5981 46.3212 24.7895 46.5157 24.9394C46.7098 25.0893 46.9558 25.1725 47.2536 25.1893C47.5594 25.2057 47.8261 25.1831 48.0538 25.1205C48.2809 25.058 48.4876 24.9601 48.6739 24.8269C48.8599 24.6939 49.0294 24.5357 49.1826 24.3523C49.3352 24.1693 49.4863 23.9696 49.6351 23.753C49.7758 24.0695 49.9577 24.315 50.1809 24.4899C50.4042 24.6646 50.6399 24.7689 50.888 24.802C51.1359 24.8351 51.3884 24.8001 51.6448 24.6959C51.9009 24.5919 52.1324 24.4149 52.3391 24.1651C52.4755 24.0119 52.6038 23.8377 52.7244 23.6452C52.7756 23.7354 52.8299 23.8223 52.8912 23.9027C53.0938 24.1693 53.3688 24.3523 53.7163 24.4523C54.0883 24.5523 54.4518 24.5691 54.8075 24.5024C55.163 24.4359 55.5022 24.315 55.8246 24.1402C56.1472 23.9653 56.4468 23.7552 56.7241 23.5094C57.0009 23.2638 57.2428 23.0079 57.4496 22.7413C57.4413 22.9328 57.4371 23.1141 57.4371 23.2846C57.4371 23.4554 57.433 23.6405 57.425 23.8404C57.0113 24.132 56.6206 24.4816 56.2527 24.8895C55.8846 25.2973 55.562 25.7324 55.2851 26.1945C55.0081 26.6565 54.791 27.125 54.6342 27.5995C54.4769 28.0743 54.4003 28.5177 54.4045 28.9299C54.4086 29.342 54.5056 29.702 54.696 30.0099C54.8859 30.3182 55.1961 30.5386 55.6261 30.6719C56.0729 30.8136 56.4654 30.8175 56.8048 30.6845C57.1438 30.5511 57.4392 30.3305 57.6915 30.0225C57.9437 29.7145 58.1504 29.342 58.3119 28.9048C58.473 28.4677 58.6011 28.0118 58.6963 27.5373C58.7913 27.0628 58.8513 26.5961 58.8761 26.1385C58.9009 25.6804 58.9009 25.2723 58.8761 24.9144C59.5873 24.6147 60.1702 24.2359 60.625 23.7778C61.0799 23.3202 61.456 22.8371 61.7538 22.3292C61.8446 22.2043 61.8757 22.0544 61.8469 21.8796C61.8177 21.7047 61.7476 21.5548 61.6361 21.43Z" fill="white"/>
<path fill-rule="evenodd" clip-rule="evenodd" d="M77.2863 20.631C77.3111 20.4396 77.3484 20.2376 77.3978 20.0252C77.4475 19.8129 77.5096 19.6068 77.5841 19.407C77.6583 19.2072 77.7452 19.0345 77.8446 18.8887C77.9437 18.7431 78.0492 18.639 78.1607 18.5764C78.2725 18.5142 78.3858 18.5203 78.502 18.5951C78.6259 18.6702 78.7022 18.8284 78.7315 19.0697C78.7602 19.3114 78.7315 19.5694 78.6445 19.8441C78.5576 20.119 78.4026 20.377 78.1794 20.6185C77.9561 20.8601 77.6542 21.0181 77.2739 21.093C77.2573 20.9767 77.2614 20.8225 77.2863 20.631ZM81.5841 21.1429C81.4477 21.1016 81.3176 21.0973 81.1934 21.1305C81.0695 21.1638 80.9908 21.2513 80.958 21.393C80.8915 21.6593 80.7859 21.932 80.6413 22.2108C80.4967 22.4899 80.3189 22.7541 80.1083 23.004C79.8975 23.2537 79.6595 23.4744 79.3951 23.6658C79.1301 23.8574 78.8533 23.9948 78.5638 24.0779C78.2743 24.1697 78.0345 24.18 77.8446 24.1092C77.6542 24.0387 77.5033 23.9178 77.3918 23.7471C77.2801 23.5765 77.1994 23.3703 77.1499 23.1289C77.1003 22.8874 77.0713 22.6377 77.063 22.3794C77.5344 22.4129 77.954 22.3276 78.3222 22.1234C78.6898 21.9196 79.0021 21.6488 79.2585 21.3116C79.5146 20.9745 79.7092 20.5956 79.8414 20.1751C79.9736 19.7548 80.0481 19.3363 80.0646 18.9199C80.0729 18.5286 80.0152 18.1977 79.891 17.9271C79.7671 17.6566 79.5995 17.4461 79.3886 17.2964C79.178 17.1465 78.9358 17.059 78.6632 17.0341C78.3905 17.0091 78.1131 17.0466 77.8319 17.1465C77.4927 17.2631 77.2056 17.4524 76.9699 17.7148C76.7342 17.977 76.5378 18.2811 76.3808 18.6265C76.2237 18.9721 76.0996 19.3446 76.0087 19.7442C75.9177 20.1439 75.8514 20.5373 75.8103 20.9246C75.7731 21.272 75.7531 21.6043 75.7461 21.925C75.7283 21.9657 75.7112 22.0048 75.6923 22.0484C75.564 22.3442 75.415 22.6336 75.2458 22.9165C75.0763 23.1997 74.888 23.437 74.6815 23.6284C74.4748 23.82 74.2598 23.8865 74.0366 23.8282C73.9041 23.7951 73.8319 23.6408 73.8195 23.3662C73.8071 23.0913 73.8213 22.75 73.8627 22.342C73.9041 21.9342 73.9517 21.4926 74.0055 21.0181C74.0591 20.5435 74.086 20.0899 74.086 19.6568C74.086 19.2821 74.0156 18.9222 73.8751 18.5764C73.7344 18.2312 73.5421 17.9438 73.2984 17.7148C73.0545 17.4857 72.7712 17.3337 72.4488 17.259C72.1262 17.1839 71.779 17.2339 71.407 17.4087C71.0347 17.5836 70.739 17.8292 70.5201 18.1456C70.3007 18.4622 70.1002 18.7951 69.9183 19.1448C69.8521 18.8783 69.7551 18.6308 69.6267 18.4017C69.4987 18.1727 69.3416 17.9729 69.1556 17.8021C68.9693 17.6316 68.7603 17.4984 68.5293 17.4025C68.2977 17.307 68.0535 17.259 67.7971 17.259C67.5493 17.259 67.3198 17.307 67.1089 17.4025C66.8981 17.4984 66.7058 17.621 66.532 17.7709C66.3584 17.9209 66.2014 18.0894 66.0606 18.2768C65.9201 18.4641 65.7959 18.6495 65.6886 18.8325C65.6718 18.616 65.6534 18.4267 65.633 18.2641C65.612 18.1019 65.5747 17.9645 65.5212 17.8522C65.4674 17.7397 65.3911 17.6544 65.2917 17.5961C65.1924 17.538 65.0519 17.5087 64.87 17.5087C64.7789 17.5087 64.6879 17.5274 64.5971 17.5647C64.506 17.6023 64.4253 17.6544 64.3552 17.721C64.2848 17.7879 64.2312 17.8688 64.194 17.9645C64.1567 18.0602 64.1466 18.1707 64.1629 18.2955C64.1712 18.3872 64.194 18.4974 64.2312 18.6265C64.2682 18.7556 64.3034 18.9244 64.3365 19.1322C64.3696 19.3405 64.3966 19.5924 64.4172 19.8879C64.4379 20.1835 64.4439 20.5457 64.4359 20.9745C64.4273 21.4034 64.3966 21.9049 64.3427 22.4794C64.2889 23.0539 64.2041 23.72 64.0884 24.4776C64.0719 24.6525 64.1381 24.7941 64.2871 24.9023C64.4359 25.0104 64.6053 25.0728 64.7955 25.0896C64.9856 25.1063 65.1657 25.0728 65.3352 24.9898C65.5046 24.9063 65.6019 24.7607 65.6265 24.5526C65.6513 24.1613 65.6989 23.7451 65.7693 23.3036C65.8394 22.8625 65.9263 22.4254 66.0298 21.9923C66.133 21.5595 66.2508 21.1474 66.3832 20.7558C66.5154 20.3645 66.6624 20.0191 66.8236 19.7193C66.985 19.4195 67.1524 19.1802 67.326 19.0012C67.4996 18.8222 67.6815 18.7326 67.8719 18.7326C68.1032 18.7326 68.283 18.8387 68.4113 19.051C68.5394 19.2634 68.6302 19.5363 68.6842 19.869C68.7378 20.2022 68.7626 20.5667 68.7588 20.962C68.7544 21.3575 68.7378 21.7383 68.7091 22.1047C68.6801 22.4712 68.647 22.7979 68.6097 23.0851C68.5725 23.3724 68.5456 23.5703 68.5293 23.6783C68.5293 23.8699 68.6015 24.0217 68.7461 24.1342C68.8907 24.2465 69.0519 24.3132 69.2299 24.334C69.4079 24.3549 69.575 24.3215 69.7323 24.234C69.8893 24.1465 69.9804 23.999 70.0052 23.7907C70.0878 23.1913 70.2016 22.5898 70.3462 21.9862C70.4909 21.3825 70.6564 20.8414 70.8424 20.3626C71.0285 19.8838 71.2352 19.4924 71.4626 19.1885C71.69 18.8848 71.9319 18.7326 72.1883 18.7326C72.3205 18.7326 72.4219 18.8244 72.492 19.0074C72.5624 19.1905 72.5976 19.4403 72.5976 19.7567C72.5976 19.9899 72.5789 20.2293 72.542 20.4749C72.5044 20.7205 72.4612 20.9745 72.4116 21.2367C72.3619 21.4991 72.3184 21.7675 72.2812 22.0423C72.2442 22.3172 72.2255 22.6042 72.2255 22.904C72.2255 23.1122 72.2462 23.3537 72.2876 23.6284C72.3288 23.903 72.4072 24.1635 72.5231 24.4089C72.639 24.6547 72.7981 24.8627 73.0009 25.0334C73.2035 25.204 73.4617 25.2894 73.7758 25.2894C74.2474 25.2894 74.6647 25.1874 75.0287 24.9835C75.3925 24.7795 75.7048 24.5132 75.9653 24.1843C75.9787 24.167 75.9912 24.1486 76.0043 24.1315C76.0243 24.1801 76.0419 24.2316 76.0644 24.2779C76.2421 24.6442 76.484 24.9272 76.7901 25.1272C77.0959 25.327 77.4557 25.4372 77.8694 25.4582C78.2826 25.4788 78.7333 25.4018 79.2215 25.227C79.585 25.0937 79.9014 24.9272 80.1702 24.7274C80.4387 24.5276 80.6806 24.2841 80.8956 23.9968C81.1109 23.7096 81.307 23.3786 81.485 23.004C81.663 22.6291 81.8425 22.2005 82.0244 21.7174C82.0575 21.5845 82.0265 21.4658 81.9315 21.3616C81.8363 21.2576 81.7207 21.1847 81.5841 21.1429Z" fill="white"/>
<path fill-rule="evenodd" clip-rule="evenodd" d="M88.3228 19.7498C88.2814 19.9956 88.2258 20.2664 88.1554 20.5617C88.0851 20.8574 87.9963 21.1633 87.8887 21.4798C87.7813 21.7962 87.6489 22.0814 87.4918 22.3352C87.3348 22.5893 87.1547 22.791 86.9524 22.9409C86.7496 23.0908 86.5162 23.1532 86.2515 23.1282C86.1191 23.1117 86.0177 23.0202 85.9475 22.8535C85.8772 22.6871 85.8402 22.4746 85.8358 22.2165C85.8316 21.9586 85.8544 21.6754 85.9041 21.3673C85.9538 21.0594 86.0301 20.7574 86.1338 20.4617C86.237 20.1664 86.363 19.8936 86.5118 19.6437C86.6608 19.394 86.8323 19.2004 87.0266 19.063C87.2209 18.9256 87.4341 18.8613 87.6654 18.8694C87.897 18.8778 88.1451 18.9942 88.4097 19.2191C88.3929 19.3274 88.3642 19.5044 88.3228 19.7498ZM92.7324 20.7053C92.604 20.6387 92.4718 20.6243 92.3355 20.6617C92.1992 20.6991 92.1019 20.8262 92.0442 21.0426C92.0111 21.2758 91.9366 21.5504 91.8209 21.8668C91.705 22.1832 91.5622 22.4832 91.393 22.766C91.2233 23.0491 91.029 23.2844 90.8098 23.4717C90.5907 23.6592 90.3571 23.7446 90.1092 23.7276C89.9023 23.7111 89.7574 23.605 89.6751 23.4093C89.5921 23.2136 89.5489 22.9682 89.5447 22.6724C89.5403 22.377 89.5696 22.044 89.6314 21.6734C89.6935 21.3029 89.768 20.9345 89.8547 20.5679C89.9416 20.2017 90.0306 19.8498 90.1217 19.5126C90.2125 19.1755 90.2867 18.8903 90.3449 18.6572C90.4109 18.449 90.3902 18.2722 90.2828 18.1263C90.1752 17.9808 90.0409 17.8765 89.8798 17.8141C89.7183 17.7517 89.5548 17.7351 89.3895 17.7642C89.2242 17.7934 89.1168 17.8829 89.0671 18.0326C88.5792 17.608 88.1099 17.379 87.6595 17.3458C87.2085 17.3125 86.793 17.4125 86.4127 17.6455C86.0321 17.8786 85.6953 18.2158 85.4019 18.6572C85.1083 19.0986 84.8705 19.5794 84.6884 20.0997C84.5065 20.62 84.3929 21.151 84.3474 21.6921C84.3019 22.2333 84.337 22.7267 84.4529 23.1721C84.5688 23.6175 84.7732 23.9819 85.0669 24.2647C85.3603 24.5479 85.7595 24.6895 86.264 24.6895C86.4872 24.6895 86.7022 24.6437 86.9089 24.5522C87.1154 24.4604 87.3058 24.3522 87.4794 24.2273C87.653 24.1025 87.8059 23.9713 87.9386 23.8339C88.0706 23.6965 88.174 23.5822 88.2486 23.4904C88.3063 23.7902 88.4015 24.0443 88.5339 24.2524C88.6659 24.4604 88.817 24.6314 88.9864 24.7643C89.1559 24.8974 89.3339 24.9953 89.5199 25.0579C89.7059 25.1203 89.886 25.1515 90.0593 25.1515C90.4482 25.1515 90.8117 25.0183 91.1511 24.7518C91.49 24.4856 91.794 24.1586 92.0628 23.7715C92.3314 23.3843 92.5528 22.9764 92.7261 22.5475C92.9 22.1188 93.0157 21.7379 93.0736 21.4046C93.1316 21.2798 93.1209 21.1488 93.0426 21.0114C92.9639 20.874 92.8607 20.7721 92.7324 20.7053Z" fill="white"/>
<path fill-rule="evenodd" clip-rule="evenodd" d="M115.061 27.6003C114.991 27.8831 114.881 28.1229 114.732 28.3184C114.583 28.514 114.397 28.6159 114.174 28.6246C114.034 28.6327 113.926 28.5576 113.851 28.3997C113.777 28.2413 113.725 28.0374 113.696 27.7877C113.668 27.5378 113.655 27.2588 113.659 26.9509C113.663 26.6429 113.676 26.3388 113.696 26.0391C113.717 25.7395 113.742 25.4603 113.771 25.2024C113.8 24.9441 113.822 24.7446 113.839 24.603C114.12 24.6362 114.354 24.7589 114.54 24.9713C114.726 25.1837 114.869 25.4355 114.968 25.727C115.067 26.0184 115.125 26.3328 115.142 26.6698C115.158 27.0071 115.131 27.3171 115.061 27.6003ZM110.571 27.6003C110.501 27.8831 110.391 28.1229 110.242 28.3184C110.093 28.514 109.907 28.6159 109.684 28.6246C109.543 28.6327 109.436 28.5576 109.361 28.3997C109.287 28.2413 109.235 28.0374 109.206 27.7877C109.177 27.5378 109.165 27.2588 109.169 26.9509C109.173 26.6429 109.186 26.3388 109.206 26.0391C109.227 25.7395 109.252 25.4603 109.281 25.2024C109.31 24.9441 109.332 24.7446 109.349 24.603C109.63 24.6362 109.864 24.7589 110.05 24.9713C110.236 25.1837 110.378 25.4355 110.478 25.727C110.577 26.0184 110.635 26.3328 110.651 26.6698C110.668 27.0071 110.641 27.3171 110.571 27.6003ZM105.963 20.5065C105.954 20.7062 105.936 20.8832 105.907 21.0372C105.878 21.1915 105.839 21.2891 105.789 21.3308C105.698 21.2807 105.586 21.1519 105.454 20.9435C105.322 20.7355 105.219 20.5001 105.144 20.2378C105.07 19.9756 105.047 19.7176 105.076 19.4635C105.105 19.2097 105.235 19.0121 105.466 18.8703C105.557 18.8204 105.636 18.8391 105.702 18.9265C105.768 19.014 105.822 19.1409 105.864 19.3074C105.905 19.4741 105.933 19.6655 105.95 19.882C105.967 20.0985 105.971 20.3066 105.963 20.5065ZM104.865 22.9981C104.737 23.1353 104.594 23.254 104.437 23.354C104.28 23.4539 104.119 23.5289 103.953 23.5788C103.788 23.6289 103.639 23.6412 103.507 23.6162C103.135 23.5414 102.849 23.3788 102.651 23.1291C102.452 22.8794 102.326 22.586 102.273 22.2488C102.219 21.9115 102.225 21.5513 102.291 21.1684C102.357 20.7854 102.469 20.4295 102.626 20.1006C102.783 19.7717 102.973 19.4885 103.197 19.2513C103.42 19.014 103.664 18.8663 103.928 18.8078C103.829 19.2325 103.796 19.6718 103.829 20.1255C103.862 20.5793 103.97 21.006 104.152 21.4055C104.267 21.6473 104.406 21.8677 104.567 22.0675C104.729 22.2675 104.925 22.4381 105.157 22.5796C105.09 22.7213 104.993 22.8607 104.865 22.9981ZM118.59 20.6314C118.615 20.44 118.652 20.2378 118.702 20.0255C118.751 19.8133 118.813 19.6072 118.887 19.4074C118.962 19.2075 119.049 19.0347 119.148 18.8891C119.247 18.7435 119.353 18.6393 119.464 18.5768C119.576 18.5144 119.69 18.5206 119.805 18.5955C119.929 18.6706 120.006 18.8288 120.035 19.0701C120.064 19.3117 120.035 19.5697 119.948 19.8446C119.861 20.1193 119.706 20.3774 119.483 20.6187C119.26 20.8605 118.958 21.0185 118.577 21.0934C118.561 20.977 118.565 20.823 118.59 20.6314ZM123.589 20.6314C123.614 20.44 123.651 20.2378 123.7 20.0255C123.75 19.8133 123.812 19.6072 123.887 19.4074C123.961 19.2075 124.047 19.0347 124.147 18.8891C124.246 18.7435 124.352 18.6393 124.463 18.5768C124.575 18.5144 124.689 18.5206 124.804 18.5955C124.928 18.6706 125.005 18.8288 125.034 19.0701C125.063 19.3117 125.034 19.5697 124.947 19.8446C124.86 20.1193 124.705 20.3774 124.482 20.6187C124.259 20.8605 123.957 21.0185 123.576 21.0934C123.56 20.977 123.564 20.823 123.589 20.6314ZM128.234 21.362C128.139 21.258 128.023 21.1852 127.887 21.1433C127.75 21.1018 127.62 21.0977 127.496 21.131C127.372 21.1642 127.293 21.2517 127.26 21.3932C127.194 21.6597 127.089 21.9324 126.944 22.2111C126.799 22.4903 126.621 22.7546 126.411 23.0043C126.2 23.254 125.962 23.4749 125.698 23.6663C125.433 23.8578 125.156 23.9952 124.867 24.0782C124.577 24.1701 124.337 24.1804 124.147 24.1096C123.957 24.0389 123.806 23.9182 123.694 23.7475C123.583 23.5767 123.502 23.3707 123.452 23.1291C123.403 22.8878 123.373 22.6381 123.365 22.3798C123.837 22.4133 124.256 22.328 124.624 22.1238C124.992 21.9199 125.305 21.6491 125.561 21.3119C125.817 20.9749 126.012 20.5961 126.144 20.1756C126.276 19.755 126.351 19.3367 126.367 18.9203C126.375 18.529 126.317 18.198 126.193 17.9274C126.07 17.6569 125.902 17.4465 125.691 17.2968C125.48 17.1467 125.239 17.0594 124.965 17.0344C124.693 17.0093 124.416 17.0471 124.134 17.1467C123.795 17.2635 123.508 17.4528 123.273 17.7151C123.037 17.9774 122.84 18.2815 122.683 18.6267C122.526 18.9725 122.402 19.3448 122.311 19.7446C122.22 20.1442 122.154 20.5378 122.113 20.9248C122.072 21.3005 122.051 21.66 122.046 22.0042C122.014 22.0728 121.981 22.1417 121.945 22.2111C121.8 22.4903 121.622 22.7546 121.412 23.0043C121.201 23.254 120.963 23.4749 120.699 23.6663C120.434 23.8578 120.157 23.9952 119.868 24.0782C119.578 24.1701 119.338 24.1804 119.148 24.1096C118.958 24.0389 118.807 23.9182 118.695 23.7475C118.584 23.5767 118.503 23.3707 118.453 23.1291C118.404 22.8878 118.375 22.6381 118.367 22.3798C118.838 22.4133 119.258 22.328 119.626 22.1238C119.993 21.9199 120.306 21.6491 120.562 21.3119C120.818 20.9749 121.013 20.5961 121.145 20.1756C121.277 19.755 121.352 19.3367 121.368 18.9203C121.376 18.529 121.319 18.198 121.195 17.9274C121.071 17.6569 120.903 17.4465 120.692 17.2968C120.481 17.1467 120.24 17.0594 119.967 17.0344C119.694 17.0093 119.417 17.0471 119.136 17.1467C118.796 17.2635 118.509 17.4528 118.274 17.7151C118.038 17.9774 117.841 18.2815 117.684 18.6267C117.527 18.9725 117.403 19.3448 117.312 19.7446C117.221 20.1442 117.155 20.5378 117.114 20.9248C117.09 21.1432 117.075 21.3549 117.063 21.5627C116.983 21.6312 116.905 21.7001 116.822 21.7678C116.537 22.001 116.237 22.2111 115.923 22.3985C115.609 22.586 115.282 22.74 114.943 22.8607C114.604 22.9814 114.257 23.0543 113.901 23.0792L114.67 14.7864C114.72 14.6114 114.695 14.4576 114.596 14.3243C114.497 14.1911 114.368 14.0995 114.211 14.0496C114.054 13.9995 113.887 14.0038 113.709 14.062C113.531 14.1204 113.384 14.2537 113.269 14.4615C113.211 14.7781 113.151 15.211 113.089 15.7605C113.027 16.31 112.965 16.9095 112.903 17.559C112.841 18.2084 112.779 18.8787 112.717 19.5696C112.655 20.2609 112.601 20.9061 112.555 21.5055C112.553 21.5322 112.552 21.5562 112.55 21.5825C112.477 21.6443 112.407 21.7066 112.332 21.7678C112.047 22.001 111.747 22.2111 111.433 22.3985C111.118 22.586 110.792 22.74 110.453 22.8607C110.114 22.9814 109.766 23.0543 109.411 23.0792L110.18 14.7864C110.23 14.6114 110.205 14.4576 110.106 14.3243C110.006 14.1911 109.878 14.0995 109.721 14.0496C109.564 13.9995 109.396 14.0038 109.219 14.062C109.041 14.1204 108.894 14.2537 108.778 14.4615C108.72 14.7781 108.661 15.211 108.599 15.7605C108.536 16.31 108.475 16.9095 108.412 17.559C108.35 18.2084 108.289 18.8787 108.226 19.5696C108.165 20.2609 108.111 20.9061 108.065 21.5055C108.064 21.5176 108.063 21.5285 108.062 21.5406C107.933 21.6012 107.791 21.6545 107.637 21.6992C107.48 21.7451 107.302 21.7722 107.104 21.7804C107.137 21.6304 107.164 21.4639 107.184 21.2807C107.205 21.0977 107.222 20.9061 107.234 20.7062C107.247 20.5065 107.251 20.3066 107.247 20.1068C107.242 19.9068 107.232 19.7238 107.216 19.5571C107.174 19.1994 107.098 18.86 106.986 18.5393C106.874 18.2189 106.724 17.9505 106.533 17.7338C106.343 17.5173 106.106 17.3716 105.82 17.2968C105.535 17.2218 105.202 17.2467 104.822 17.3716C104.259 17.2968 103.753 17.3489 103.302 17.5278C102.851 17.707 102.46 17.967 102.13 18.3083C101.799 18.6499 101.528 19.0514 101.317 19.5136C101.107 19.9756 100.966 20.4503 100.896 20.9372C100.866 21.1436 100.852 21.3492 100.847 21.5542C100.719 21.8181 100.579 22.0488 100.424 22.2425C100.205 22.5172 99.9778 22.742 99.7421 22.9168C99.5065 23.0917 99.2728 23.225 99.0415 23.3166C98.8097 23.4083 98.603 23.4707 98.4211 23.5038C98.2061 23.5455 97.9994 23.5498 97.801 23.5164C97.6026 23.4832 97.4204 23.3874 97.2554 23.2291C97.1229 23.1126 97.0215 22.9252 96.9514 22.6671C96.881 22.409 96.8399 22.1157 96.8274 21.7866C96.815 21.4577 96.8274 21.1142 96.8644 20.7562C96.9017 20.3983 96.9656 20.0589 97.0567 19.7384C97.1477 19.4179 97.2631 19.1306 97.4041 18.8764C97.5443 18.6228 97.7099 18.4415 97.9003 18.3333C98.0074 18.3501 98.0739 18.4144 98.0988 18.5268C98.1236 18.6393 98.1296 18.7725 98.1171 18.9265C98.105 19.0807 98.0864 19.2388 98.0615 19.4011C98.0367 19.5635 98.0243 19.699 98.0243 19.807C98.0657 20.0318 98.1461 20.2068 98.2662 20.3316C98.3859 20.4565 98.5205 20.5295 98.6692 20.5501C98.818 20.571 98.9647 20.5357 99.1098 20.444C99.2542 20.3525 99.3719 20.2068 99.4632 20.0068C99.4713 20.0152 99.4837 20.0193 99.5002 20.0193L99.6741 18.4333C99.7235 18.2167 99.6904 18.0253 99.5748 17.8588C99.4588 17.6922 99.3059 17.5964 99.1158 17.5715C98.876 17.2218 98.5513 17.0366 98.142 17.0157C97.7327 16.9949 97.3131 17.1302 96.8831 17.4216C96.6184 17.6133 96.3848 17.8775 96.1822 18.2146C95.9794 18.552 95.8143 18.9265 95.6863 19.3386C95.5577 19.7507 95.4669 20.186 95.4133 20.6439C95.3595 21.1018 95.3492 21.5474 95.382 21.9801C95.4151 22.4133 95.4917 22.8213 95.6117 23.2041C95.7315 23.5872 95.8989 23.9077 96.1142 24.1657C96.296 24.3905 96.5025 24.5551 96.7341 24.6592C96.9656 24.7633 97.2075 24.8277 97.4597 24.8527C97.712 24.8776 97.9622 24.8671 98.2103 24.8215C98.4584 24.7758 98.6941 24.7113 98.9174 24.6278C99.2066 24.5198 99.5046 24.3823 99.8104 24.2157C100.116 24.0494 100.41 23.8494 100.691 23.6162C100.839 23.4935 100.981 23.3598 101.119 23.2164C101.182 23.373 101.252 23.5244 101.336 23.6663C101.559 24.0408 101.861 24.3449 102.242 24.5779C102.622 24.811 103.089 24.9232 103.643 24.9151C104.239 24.9067 104.788 24.7549 105.293 24.4593C105.797 24.1639 106.211 23.7285 106.533 23.1541C107.016 23.1541 107.492 23.074 107.959 22.9147C107.955 22.9651 107.951 23.0182 107.947 23.0669C107.914 23.5081 107.898 23.8077 107.898 23.966C107.89 24.2408 107.871 24.58 107.842 24.9837C107.813 25.3876 107.794 25.8122 107.786 26.2575C107.778 26.703 107.794 27.1527 107.836 27.6065C107.877 28.0601 107.964 28.4724 108.096 28.8431C108.228 29.2133 108.416 29.5278 108.661 29.7861C108.904 30.0439 109.225 30.1982 109.622 30.2481C110.044 30.3061 110.407 30.2314 110.713 30.0233C111.019 29.8149 111.267 29.5299 111.458 29.1678C111.648 28.8055 111.782 28.3872 111.861 27.9127C111.939 27.4379 111.962 26.9613 111.929 26.4824C111.896 26.0036 111.809 25.5521 111.668 25.1276C111.528 24.7028 111.333 24.3531 111.086 24.0782C111.235 24.0368 111.412 23.9578 111.619 23.841C111.825 23.7246 112.038 23.5934 112.258 23.4476C112.312 23.4118 112.365 23.3741 112.418 23.3373C112.398 23.6323 112.388 23.8427 112.388 23.966C112.38 24.2408 112.361 24.58 112.332 24.9837C112.303 25.3876 112.285 25.8122 112.276 26.2575C112.268 26.703 112.285 27.1527 112.326 27.6065C112.367 28.0601 112.454 28.4724 112.586 28.8431C112.719 29.2133 112.907 29.5278 113.151 29.7861C113.395 30.0439 113.715 30.1982 114.112 30.2481C114.534 30.3061 114.897 30.2314 115.204 30.0233C115.51 29.8149 115.758 29.5299 115.948 29.1678C116.138 28.8055 116.272 28.3872 116.351 27.9127C116.43 27.4379 116.452 26.9613 116.419 26.4824C116.386 26.0036 116.299 25.5521 116.159 25.1276C116.018 24.7028 115.824 24.3531 115.576 24.0782C115.725 24.0368 115.902 23.9578 116.109 23.841C116.316 23.7246 116.529 23.5934 116.748 23.4476C116.862 23.3719 116.975 23.2938 117.088 23.2134C117.13 23.6206 117.222 23.9778 117.368 24.2782C117.546 24.6447 117.788 24.9276 118.094 25.1276C118.399 25.3272 118.759 25.4377 119.173 25.4584C119.586 25.479 120.037 25.4022 120.525 25.2272C120.889 25.0941 121.205 24.9276 121.474 24.7278C121.742 24.5279 121.984 24.2843 122.199 23.9972C122.212 23.9806 122.223 23.9625 122.236 23.9458C122.274 24.0624 122.316 24.1744 122.367 24.2782C122.545 24.6447 122.787 24.9276 123.093 25.1276C123.398 25.3272 123.758 25.4377 124.172 25.4584C124.585 25.479 125.036 25.4022 125.524 25.2272C125.888 25.0941 126.204 24.9276 126.473 24.7278C126.741 24.5279 126.983 24.2843 127.198 23.9972C127.413 23.7098 127.609 23.3788 127.787 23.0043C127.965 22.6295 128.145 22.2009 128.327 21.7179C128.36 21.5848 128.329 21.4661 128.234 21.362Z" fill="white"/>
</svg>
