<svg width="97" height="97" viewBox="0 0 97 97" fill="none" xmlns="http://www.w3.org/2000/svg">
<g clip-path="url(#clip0_84_7070)">
<path d="M31.0452 44.7079C28.6562 44.0201 26.2671 43.6711 23.9432 43.6711C20.3545 43.6711 17.3601 44.4912 15.0382 45.4954C17.2766 37.3005 22.654 23.1604 33.3661 21.568C34.3582 21.4205 35.1712 20.7031 35.4418 19.7375L37.783 11.3635C37.9804 10.6553 37.8634 9.89731 37.4595 9.28274C37.0555 8.66817 36.4064 8.25812 35.6789 8.1584C34.8883 8.05055 34.0824 7.99561 33.2837 7.99561C20.4257 7.99561 7.69191 21.4164 2.31856 40.6328C-0.835642 51.9067 -1.76054 68.8561 6.00899 79.5246C10.3567 85.4943 16.6997 88.6821 24.862 89.0005C24.8956 89.0016 24.9281 89.0026 24.9617 89.0026C35.0328 89.0026 43.9632 82.22 46.6799 72.51C48.3028 66.7052 47.5692 60.6175 44.6124 55.3641C41.6871 50.1698 36.8693 46.3837 31.0452 44.7079Z" fill="#E36F59"/>
<path d="M94.0881 55.3652C91.1628 50.1698 86.345 46.3837 80.5209 44.7079C78.1318 44.0201 75.7428 43.6711 73.4199 43.6711C69.8312 43.6711 66.8357 44.4912 64.5138 45.4955C66.7523 37.3005 72.1297 23.1604 82.8428 21.568C83.8348 21.4205 84.6468 20.7031 84.9185 19.7375L87.2597 11.3635C87.4571 10.6553 87.3401 9.89731 86.9361 9.28274C86.5332 8.66817 85.8841 8.25812 85.1555 8.1584C84.366 8.05055 83.5601 7.99561 82.7604 7.99561C69.9024 7.99561 57.1686 21.4164 51.7942 40.6328C48.641 51.9067 47.7161 68.8562 55.4867 79.5266C59.8334 85.4953 66.1774 88.6841 74.3386 89.0016C74.3722 89.0026 74.4048 89.0036 74.4394 89.0036C84.5094 89.0036 93.4409 82.221 96.1576 72.511C97.7785 66.7062 97.0439 60.6175 94.0881 55.3652Z" fill="#E36F59"/>
</g>
<defs>
<clipPath id="clip0_84_7070">
<rect width="97" height="97" fill="white"/>
</clipPath>
</defs>
</svg>
